<svg id="Capa_1" enable-background="new 0 0 512 512" height="512" viewBox="0 0 512 512" width="512" xmlns="http://www.w3.org/2000/svg"><g>
    <path fill="#fff" d="m225.756 220.122c-1.239-.438-2.425-.86-3.561-1.268v-26.469c2.528.996 4.303 2.388 5.242 3.726 3.173 4.521 9.409 5.615 13.93 2.441 4.52-3.173 5.614-9.409 2.441-13.93-4.229-6.027-11.783-11.09-21.613-12.915v-.99c0-5.523-4.477-10-10-10-5.522 0-10 4.477-10 10v1.715c-1.111.264-2.236.567-3.373.909-11.62 3.501-20.391 14.775-21.328 27.418-.928 12.517 5.72 23.385 17.782 29.072 1.553.733 3.922 1.724 6.919 2.902v32.179c-3.855-1.34-7.324-3.397-9.654-6.291-3.467-4.3-9.761-4.978-14.061-1.515-4.301 3.465-4.979 9.76-1.515 14.062 6.482 8.046 15.936 12.458 25.23 14.434v.393c0 5.523 4.478 10 10 10 5.406 0 9.81-4.291 9.993-9.653 16.394-2.469 27.959-13.053 29.805-27.586 2.102-16.543-8.687-32.43-26.237-38.634zm-28.317-17.884c.255-3.435 2.163-6.726 4.756-8.557v17.195c-3.426-2.1-5.026-4.999-4.756-8.638zm34.714 53.997c-.605 4.76-4.159 8.171-9.958 9.728v-25.654c7.706 3.937 10.616 10.746 9.958 15.926z"/>
    <path fill="#fff" d="m220.165 452.084h-13.333c-5.522 0-10 4.477-10 10 0 5.522 4.478 10 10 10h13.333c5.523 0 10-4.478 10-10 0-5.523-4.477-10-10-10z"/>
    <path fill="#fff" d="m447.107 321.377h-35.731v-6.301c0-23.84-16.874-43.803-39.273-48.507v-218.466c0-26.524-21.66-48.103-48.284-48.103h-220.642c-26.624 0-48.284 21.579-48.284 48.103v415.704c0 26.574 21.619 48.193 48.193 48.193h314.18c21.969 0 39.842-17.873 39.842-39.842v-140.781c-.001-5.523-4.478-10-10.001-10zm-55.731-6.301v6.301h-58.827v-6.301c0-16.298 13.195-29.557 29.414-29.557 16.219.001 29.413 13.259 29.413 29.557zm-177.878 7.183c-51.777 0-93.901-42.124-93.901-93.902 0-51.777 42.124-93.901 93.901-93.901 51.778 0 93.902 42.124 93.902 93.901 0 51.778-42.124 93.902-93.902 93.902zm65.666-.882c29.163-20.648 48.237-54.649 48.237-93.021 0-62.806-51.097-113.901-113.902-113.901-62.806 0-113.901 51.096-113.901 113.901 0 62.806 51.096 113.902 113.901 113.902 19.52 0 37.908-4.936 53.984-13.625-.248.872-.381 1.792-.381 2.743v80.791h-192.209v-327.622h277.211v181.966c-22.539 4.595-39.555 24.625-39.555 48.565v6.301zm-175.987-301.377h220.643c15.596 0 28.284 12.606 28.284 28.103v16.442h-277.211v-16.442c0-15.497 12.688-28.103 28.284-28.103zm-28.284 443.807v-31.639h192.208v39.99c0 7.219 1.93 13.996 5.301 19.842h-169.316c-15.546 0-28.193-12.647-28.193-28.193zm362.214 8.351c0 10.94-8.901 19.842-19.842 19.842h-110.323c-10.94 0-19.842-8.901-19.842-19.842v-130.781h25.448v28.523c0 5.523 4.478 10 10 10s10-4.477 10-10v-28.523h58.827v28.523c0 5.523 4.477 10 10 10 5.522 0 10-4.477 10-10v-28.523h25.731v130.781z"/></g></svg>