<svg id="Capa_1" enable-background="new 0 0 512 512" height="512" viewBox="0 0 512 512" width="512" xmlns="http://www.w3.org/2000/svg"><g><path fill="#fff" d="m511.934 110.807c-.006-16.758-13.646-30.397-30.407-30.404l-404.095-.04h-.014c-8.116 0-15.746 3.16-21.484 8.898-5.741 5.741-8.901 13.375-8.898 21.496l.005 17.401-16.645-.002h-.014c-8.116 0-15.747 3.16-21.484 8.898-5.741 5.743-8.901 13.377-8.898 21.498l.066 242.642c.006 16.758 13.645 30.397 30.407 30.404l404.095.039h.014c8.116 0 15.746-3.16 21.484-8.898 5.741-5.741 8.901-13.375 8.898-21.496l-.005-17.401 16.645.001h.014c8.116 0 15.747-3.16 21.484-8.898 5.741-5.741 8.901-13.375 8.898-21.496zm-70.011 297.79c-1.961 1.961-4.568 3.04-7.342 3.04-.003-.001-.006-.001-.008 0l-404.095-.039c-5.739-.003-10.41-4.673-10.412-10.411l-.066-242.642c-.001-2.776 1.079-5.386 3.04-7.348 1.961-1.961 4.568-3.04 7.346-3.04h.005l404.094.039c5.739.003 10.41 4.674 10.412 10.411l.066 242.642c.001 2.776-1.078 5.386-3.04 7.348zm47.037-47.794c-1.961 1.961-4.568 3.04-7.346 3.04h-.005l-16.656-.001-.056-205.241c-.006-16.758-13.646-30.398-30.407-30.404l-367.449-.036-.005-17.41c-.001-2.776 1.079-5.386 3.04-7.348 1.961-1.961 4.568-3.04 7.346-3.04h.004l404.095.039c5.739.003 10.41 4.673 10.412 10.411l.067 242.642c.001 2.776-1.079 5.386-3.04 7.348z"/><path fill="#fff" d="m410.147 197.901c-8.243-.003-14.951-6.712-14.955-14.955-.002-5.521-4.479-9.996-10-9.996h-305.467c-2.653 0-5.197 1.054-7.072 2.931-1.875 1.876-2.929 4.42-2.928 7.073.002 3.989-1.55 7.739-4.37 10.558-2.818 2.818-6.565 4.37-10.553 4.37-.003-.001-.005-.001-.009 0-2.652 0-5.195 1.054-7.07 2.929-1.876 1.876-2.93 4.42-2.93 7.073l.027 144.011c.001 5.521 4.476 9.996 9.997 9.998 8.243.003 14.951 6.712 14.955 14.955.002 5.521 4.479 9.996 10 9.996h305.468c2.653 0 5.197-1.054 7.072-2.931 1.876-1.876 2.929-4.42 2.928-7.073-.001-3.989 1.55-7.739 4.369-10.559 2.818-2.817 6.565-4.369 10.553-4.369.003-.001.004-.001.009 0 2.652 0 5.195-1.054 7.07-2.929 1.876-1.875 2.93-4.42 2.93-7.073l-.027-144.011c-.001-5.52-4.476-9.996-9.997-9.998zm-24.681 154.239c-4.169 4.169-7.153 9.206-8.786 14.704h-288.369c-3.366-11.241-12.251-20.125-23.492-23.491l-.024-126.913c5.497-1.633 10.535-4.617 14.703-8.785 4.169-4.169 7.154-9.206 8.786-14.704h288.37c3.366 11.241 12.251 20.125 23.492 23.491l.024 126.913c-5.498 1.631-10.536 4.617-14.704 8.785z"/><path fill="#fff" d="m245.27 271.734c-1.456-.515-2.845-1.01-4.167-1.486v-29.298c3.237 1.112 5.49 2.816 6.633 4.445 3.173 4.521 9.409 5.615 13.93 2.441 4.521-3.172 5.614-9.409 2.441-13.93-4.47-6.37-12.517-11.705-23.004-13.527v-1.546c0-5.523-4.477-10-10-10s-10 4.477-10 10v2.289c-1.314.302-2.646.654-3.997 1.061-12.081 3.64-21.2 15.368-22.175 28.521-.964 13.005 5.952 24.302 18.501 30.22 1.7.801 4.331 1.898 7.671 3.206v35.316c-4.499-1.444-8.588-3.762-11.286-7.111-3.465-4.3-9.761-4.979-14.061-1.515-4.301 3.465-4.979 9.76-1.515 14.062 6.881 8.542 16.981 13.167 26.861 15.184v.896c0 5.522 4.477 10 10 10s10-4.478 10-10v-.14c20.88-2.828 30.017-16.541 31.573-28.793 2.19-17.248-9.08-33.817-27.405-40.295zm-30.394-19.55c.312-4.208 2.87-8.227 6.226-10.094v20.313c-4.459-2.374-6.553-5.808-6.226-10.219zm37.959 57.324c-.699 5.507-4.902 9.383-11.732 10.994v-28.893c9.064 4.219 12.479 12.01 11.732 17.899z"/><path fill="#fff" d="m355.73 270.52h-32.681c-5.523 0-10 4.478-10 10s4.477 10 10 10h32.681c5.523 0 10-4.478 10-10 0-5.523-4.477-10-10-10z"/><path fill="#fff" d="m143.305 270.52h-32.681c-5.523 0-10 4.478-10 10s4.477 10 10 10h32.681c5.523 0 10-4.478 10-10 0-5.523-4.477-10-10-10z"/></g></svg>