<svg id="Capa_1" enable-background="new 0 0 511.985 511.985" height="512" viewBox="0 0 511.985 511.985" width="512" xmlns="http://www.w3.org/2000/svg"><g><path fill="#fff" d="m486.577 280.582h-20v-59.51c0-17.268-12.387-31.699-28.746-34.885l16.626-16.613c5.745-5.74 8.909-13.374 8.909-21.493s-3.164-15.753-8.909-21.493l-117.799-117.704c-11.855-11.846-31.143-11.846-42.998 0l-176.789 176.648h-65.902c-19.608 0-35.561 15.943-35.561 35.54v255.374c0 19.597 15.952 35.54 35.561 35.54h380.047c19.608 0 35.561-15.943 35.561-35.54v-59.51h20c5.522 0 10-4.477 10-10v-116.354c0-5.523-4.478-10-10-10zm-178.781-257.55c4.059-4.056 10.666-4.056 14.725 0l117.799 117.704c1.964 1.962 3.046 4.571 3.046 7.345s-1.082 5.383-3.046 7.345l-30.129 30.105h-35.049l12.758-12.748c1.877-1.875 2.932-4.42 2.932-7.074s-1.055-5.198-2.932-7.074c-2.822-2.82-4.376-6.569-4.376-10.555 0-3.987 1.554-7.736 4.376-10.556 1.877-1.876 2.932-4.42 2.932-7.074 0-2.653-1.055-5.198-2.932-7.074l-48.028-47.99c-3.903-3.902-10.231-3.902-14.137 0-5.83 5.825-15.319 5.827-21.149 0-3.904-3.901-10.232-3.901-14.137 0l-110.233 110.146h-35.049zm59.911 141.656-20.86 20.844h-138.335l90.034-89.962c10.329 5.571 22.895 5.572 33.226 0l35.935 35.905c-2.733 5.041-4.184 10.712-4.184 16.607 0 5.894 1.45 11.565 4.184 16.606zm-332.298 311.757v-255.373c0-8.569 6.98-15.54 15.561-15.54h26.298v286.454h-26.299c-8.58-.001-15.56-6.972-15.56-15.541zm411.168 0c0 8.569-6.98 15.54-15.561 15.54h-333.749v-286.453h333.749c8.58 0 15.561 6.971 15.561 15.54v59.51h-75.807c-37.593 0-68.177 30.584-68.177 68.177 0 37.592 30.584 68.176 68.177 68.176h75.807zm30-79.51h-105.807c-26.564 0-48.177-21.612-48.177-48.177s21.612-48.177 48.177-48.177h105.807z"/><path fill="#fff" d="m344.202 348.759c0 18.321 14.914 33.227 33.245 33.227 18.332 0 33.246-14.906 33.246-33.227 0-18.322-14.914-33.227-33.246-33.227-18.331-.001-33.245 14.905-33.245 33.227zm33.245-13.228c7.304 0 13.246 5.934 13.246 13.227 0 7.294-5.942 13.227-13.246 13.227s-13.245-5.934-13.245-13.227 5.941-13.227 13.245-13.227z"/></g></svg>