<svg id="Capa_1" enable-background="new 0 0 511.999 511.999" height="512" viewBox="0 0 511.999 511.999" width="512" xmlns="http://www.w3.org/2000/svg"><path fill="#fff" d="m71.755 193.786c-12.462 20.748-24.923 41.497-37.385 62.245-1.526 2.541-1.846 5.629-.874 8.43.973 2.801 3.138 5.025 5.912 6.073l30.919 11.684v160.462c0 4.29 2.736 8.102 6.801 9.475l175.672 59.32c2.058.699 4.341.699 6.398 0l175.672-59.32c4.064-1.373 6.801-5.185 6.801-9.475v-160.462l30.919-11.684c2.773-1.048 4.939-3.273 5.912-6.073.973-2.801.653-5.889-.873-8.43l-37.384-62.245c-1.256-1.913-3.102-3.627-5.374-4.325l-132.316-44.681v-15.178h35.931c3.791 0 7.255-2.144 8.948-5.535 1.693-3.392 1.322-7.449-.957-10.479l-82.487-109.602c-1.89-2.509-4.849-3.986-7.991-3.986s-6.101 1.477-7.99 3.986l-82.486 109.602c-2.279 3.029-2.65 7.087-.957 10.479 1.692 3.392 5.157 5.535 8.948 5.535h35.931v15.178c-44.106 14.893-88.211 29.787-132.317 44.68-.818.348-1.954.899-3.084 1.82-1.076.877-1.788 1.801-2.289 2.506zm121.8-84.184 62.445-82.972 62.445 82.972h-25.889c-5.523 0-10 4.478-10 10v59.376h-53.111v-59.376c0-5.522-4.477-10-10-10zm25.889 89.375h73.111c5.523 0 10-4.477 10-10v-23.088l97.86 33.045-144.415 48.766-144.415-48.766 97.859-33.045v23.088c0 5.523 4.477 10 10 10zm-134.689 12.007 153.634 51.879-41.322 45.867-139.384-52.67zm5.572 78.792 106.062 40.079c1.151.436 2.348.646 3.533.646 2.78 0 5.498-1.16 7.432-3.307l38.646-42.897v203.772l-155.673-52.567zm331.345 145.726-155.672 52.566v-203.772l38.647 42.897c1.934 2.146 4.651 3.307 7.432 3.307 1.185 0 2.381-.211 3.533-.646l106.062-40.079v145.727zm-106.74-126.772-41.322-45.867 153.634-51.879 27.072 45.075z"/></svg>